<mxfile host="app.diagrams.net" modified="2020-11-16T13:36:03.343Z" agent="5.0 (Macintosh; Intel Mac OS X 10_15_6) AppleWebKit/537.36 (KHTML, like Gecko) Chrome/86.0.4240.193 Safari/537.36" etag="xcCkTIbGDBGswHrvciK6" version="13.9.9" type="github">
  <diagram id="Y9glZsxrajs8FHL4l1Yg" name="Page-1">
    <mxGraphModel dx="1023" dy="597" grid="1" gridSize="10" guides="1" tooltips="1" connect="1" arrows="1" fold="1" page="1" pageScale="1" pageWidth="827" pageHeight="1169" math="0" shadow="0">
      <root>
        <mxCell id="0" />
        <mxCell id="1" parent="0" />
        <mxCell id="yRKwyBDqBlV9yVA-gZC7-102" value="" style="edgeStyle=orthogonalEdgeStyle;rounded=0;orthogonalLoop=1;jettySize=auto;html=1;fontFamily=Courier New;fontSize=16;sketch=1;fontStyle=1" edge="1" parent="1">
          <mxGeometry relative="1" as="geometry">
            <mxPoint x="340" y="224.58" as="sourcePoint" />
            <mxPoint x="390" y="224.58" as="targetPoint" />
            <Array as="points">
              <mxPoint x="330" y="225.08" />
              <mxPoint x="330" y="225.08" />
            </Array>
          </mxGeometry>
        </mxCell>
        <mxCell id="yRKwyBDqBlV9yVA-gZC7-103" value="" style="shape=table;html=1;whiteSpace=wrap;startSize=0;container=1;collapsible=0;childLayout=tableLayout;fontSize=16;fontFamily=Courier New;fontStyle=1;swimlaneFillColor=#ffffff;fillColor=#D4E1F5;sketch=0;" vertex="1" parent="1">
          <mxGeometry x="70" y="70" width="240" height="310" as="geometry" />
        </mxCell>
        <mxCell id="yRKwyBDqBlV9yVA-gZC7-104" value="" style="shape=partialRectangle;html=1;whiteSpace=wrap;collapsible=0;dropTarget=0;pointerEvents=0;fillColor=none;top=0;left=0;bottom=0;right=0;points=[[0,0.5],[1,0.5]];portConstraint=eastwest;fontSize=16;fontFamily=Courier New;fontStyle=1" vertex="1" parent="yRKwyBDqBlV9yVA-gZC7-103">
          <mxGeometry width="240" height="78" as="geometry" />
        </mxCell>
        <mxCell id="yRKwyBDqBlV9yVA-gZC7-105" value="5" style="shape=partialRectangle;html=1;whiteSpace=wrap;connectable=0;overflow=hidden;fillColor=none;top=0;left=0;bottom=0;right=0;fontSize=16;fontFamily=Courier New;fontStyle=1" vertex="1" parent="yRKwyBDqBlV9yVA-gZC7-104">
          <mxGeometry width="51" height="78" as="geometry" />
        </mxCell>
        <mxCell id="yRKwyBDqBlV9yVA-gZC7-106" value="3" style="shape=partialRectangle;html=1;whiteSpace=wrap;connectable=0;overflow=hidden;fillColor=none;top=0;left=0;bottom=0;right=0;fontSize=16;fontFamily=Courier New;fontStyle=1" vertex="1" parent="yRKwyBDqBlV9yVA-gZC7-104">
          <mxGeometry x="51" width="52" height="78" as="geometry" />
        </mxCell>
        <mxCell id="yRKwyBDqBlV9yVA-gZC7-107" value="..." style="shape=partialRectangle;html=1;whiteSpace=wrap;connectable=0;overflow=hidden;fillColor=none;top=0;left=0;bottom=0;right=0;dashed=1;fontSize=16;fontFamily=Courier New;fontStyle=1;strokeColor=none;" vertex="1" parent="yRKwyBDqBlV9yVA-gZC7-104">
          <mxGeometry x="103" width="86" height="78" as="geometry" />
        </mxCell>
        <mxCell id="yRKwyBDqBlV9yVA-gZC7-108" value="4" style="shape=partialRectangle;html=1;whiteSpace=wrap;connectable=0;overflow=hidden;fillColor=none;top=0;left=0;bottom=0;right=0;fontSize=16;fontFamily=Courier New;fontStyle=1" vertex="1" parent="yRKwyBDqBlV9yVA-gZC7-104">
          <mxGeometry x="189" width="51" height="78" as="geometry" />
        </mxCell>
        <mxCell id="yRKwyBDqBlV9yVA-gZC7-109" value="" style="shape=partialRectangle;html=1;whiteSpace=wrap;collapsible=0;dropTarget=0;pointerEvents=0;fillColor=none;top=0;left=0;bottom=0;right=0;points=[[0,0.5],[1,0.5]];portConstraint=eastwest;fontSize=16;fontFamily=Courier New;fontStyle=1" vertex="1" parent="yRKwyBDqBlV9yVA-gZC7-103">
          <mxGeometry y="78" width="240" height="77" as="geometry" />
        </mxCell>
        <mxCell id="yRKwyBDqBlV9yVA-gZC7-110" value="1" style="shape=partialRectangle;html=1;whiteSpace=wrap;connectable=0;overflow=hidden;fillColor=none;top=0;left=0;bottom=0;right=0;fontSize=16;fontFamily=Courier New;fontStyle=1" vertex="1" parent="yRKwyBDqBlV9yVA-gZC7-109">
          <mxGeometry width="51" height="77" as="geometry" />
        </mxCell>
        <mxCell id="yRKwyBDqBlV9yVA-gZC7-111" value="0" style="shape=partialRectangle;html=1;whiteSpace=wrap;connectable=0;overflow=hidden;fillColor=none;top=0;left=0;bottom=0;right=0;fontSize=16;fontFamily=Courier New;fontStyle=1" vertex="1" parent="yRKwyBDqBlV9yVA-gZC7-109">
          <mxGeometry x="51" width="52" height="77" as="geometry" />
        </mxCell>
        <mxCell id="yRKwyBDqBlV9yVA-gZC7-112" value="..." style="shape=partialRectangle;html=1;whiteSpace=wrap;connectable=0;overflow=hidden;fillColor=none;top=0;left=0;bottom=0;right=0;fontSize=16;fontFamily=Courier New;fontStyle=1" vertex="1" parent="yRKwyBDqBlV9yVA-gZC7-109">
          <mxGeometry x="103" width="86" height="77" as="geometry" />
        </mxCell>
        <mxCell id="yRKwyBDqBlV9yVA-gZC7-113" value="0" style="shape=partialRectangle;html=1;whiteSpace=wrap;connectable=0;overflow=hidden;fillColor=none;top=0;left=0;bottom=0;right=0;fontSize=16;fontFamily=Courier New;fontStyle=1" vertex="1" parent="yRKwyBDqBlV9yVA-gZC7-109">
          <mxGeometry x="189" width="51" height="77" as="geometry" />
        </mxCell>
        <mxCell id="yRKwyBDqBlV9yVA-gZC7-114" value="" style="shape=partialRectangle;html=1;whiteSpace=wrap;collapsible=0;dropTarget=0;pointerEvents=0;fillColor=none;top=0;left=0;bottom=0;right=0;points=[[0,0.5],[1,0.5]];portConstraint=eastwest;strokeColor=none;fontSize=16;fontFamily=Courier New;fontStyle=1" vertex="1" parent="yRKwyBDqBlV9yVA-gZC7-103">
          <mxGeometry y="155" width="240" height="78" as="geometry" />
        </mxCell>
        <mxCell id="yRKwyBDqBlV9yVA-gZC7-115" value="..." style="shape=partialRectangle;html=1;whiteSpace=wrap;connectable=0;overflow=hidden;fillColor=none;top=0;left=0;bottom=0;right=0;fontSize=16;fontFamily=Courier New;fontStyle=1" vertex="1" parent="yRKwyBDqBlV9yVA-gZC7-114">
          <mxGeometry width="51" height="78" as="geometry" />
        </mxCell>
        <mxCell id="yRKwyBDqBlV9yVA-gZC7-116" value="..." style="shape=partialRectangle;html=1;whiteSpace=wrap;connectable=0;overflow=hidden;fillColor=none;top=0;left=0;bottom=0;right=0;fontSize=16;fontFamily=Courier New;fontStyle=1" vertex="1" parent="yRKwyBDqBlV9yVA-gZC7-114">
          <mxGeometry x="51" width="52" height="78" as="geometry" />
        </mxCell>
        <mxCell id="yRKwyBDqBlV9yVA-gZC7-117" value="..." style="shape=partialRectangle;html=1;whiteSpace=wrap;connectable=0;overflow=hidden;fillColor=none;top=0;left=0;bottom=0;right=0;fontSize=16;fontFamily=Courier New;fontStyle=1" vertex="1" parent="yRKwyBDqBlV9yVA-gZC7-114">
          <mxGeometry x="103" width="86" height="78" as="geometry" />
        </mxCell>
        <mxCell id="yRKwyBDqBlV9yVA-gZC7-118" value="..." style="shape=partialRectangle;html=1;whiteSpace=wrap;connectable=0;overflow=hidden;fillColor=none;top=0;left=0;bottom=0;right=0;fontSize=16;fontFamily=Courier New;fontStyle=1" vertex="1" parent="yRKwyBDqBlV9yVA-gZC7-114">
          <mxGeometry x="189" width="51" height="78" as="geometry" />
        </mxCell>
        <mxCell id="yRKwyBDqBlV9yVA-gZC7-119" value="" style="shape=partialRectangle;html=1;whiteSpace=wrap;collapsible=0;dropTarget=0;pointerEvents=0;fillColor=none;top=0;left=0;bottom=0;right=0;points=[[0,0.5],[1,0.5]];portConstraint=eastwest;fontSize=16;fontFamily=Courier New;fontStyle=1" vertex="1" parent="yRKwyBDqBlV9yVA-gZC7-103">
          <mxGeometry y="233" width="240" height="77" as="geometry" />
        </mxCell>
        <mxCell id="yRKwyBDqBlV9yVA-gZC7-120" value="0" style="shape=partialRectangle;html=1;whiteSpace=wrap;connectable=0;overflow=hidden;fillColor=none;top=0;left=0;bottom=0;right=0;fontSize=16;fontFamily=Courier New;fontStyle=1" vertex="1" parent="yRKwyBDqBlV9yVA-gZC7-119">
          <mxGeometry width="51" height="77" as="geometry" />
        </mxCell>
        <mxCell id="yRKwyBDqBlV9yVA-gZC7-121" value="5" style="shape=partialRectangle;html=1;whiteSpace=wrap;connectable=0;overflow=hidden;fillColor=none;top=0;left=0;bottom=0;right=0;fontSize=16;fontFamily=Courier New;fontStyle=1" vertex="1" parent="yRKwyBDqBlV9yVA-gZC7-119">
          <mxGeometry x="51" width="52" height="77" as="geometry" />
        </mxCell>
        <mxCell id="yRKwyBDqBlV9yVA-gZC7-122" value="..." style="shape=partialRectangle;html=1;whiteSpace=wrap;connectable=0;overflow=hidden;fillColor=none;top=0;left=0;bottom=0;right=0;fontSize=16;fontFamily=Courier New;fontStyle=1" vertex="1" parent="yRKwyBDqBlV9yVA-gZC7-119">
          <mxGeometry x="103" width="86" height="77" as="geometry" />
        </mxCell>
        <mxCell id="yRKwyBDqBlV9yVA-gZC7-123" value="0" style="shape=partialRectangle;html=1;whiteSpace=wrap;connectable=0;overflow=hidden;fillColor=none;top=0;left=0;bottom=0;right=0;fontSize=16;fontFamily=Courier New;fontStyle=1" vertex="1" parent="yRKwyBDqBlV9yVA-gZC7-119">
          <mxGeometry x="189" width="51" height="77" as="geometry" />
        </mxCell>
        <mxCell id="yRKwyBDqBlV9yVA-gZC7-124" value="&lt;span&gt;&lt;font style=&quot;font-size: 19px&quot;&gt;R&lt;/font&gt;&lt;/span&gt;" style="text;html=1;strokeColor=none;fillColor=none;align=center;verticalAlign=middle;whiteSpace=wrap;rounded=0;dashed=1;fontFamily=Courier New;fontSize=16;fontStyle=1" vertex="1" parent="1">
          <mxGeometry x="170" y="40" width="40" height="20" as="geometry" />
        </mxCell>
        <mxCell id="yRKwyBDqBlV9yVA-gZC7-125" value="" style="shape=table;html=1;whiteSpace=wrap;startSize=0;container=1;collapsible=0;childLayout=tableLayout;fontSize=16;fontFamily=Courier New;fontStyle=1;sketch=0;fillColor=#D4E1F5;" vertex="1" parent="1">
          <mxGeometry x="414" y="70" width="630" height="310" as="geometry" />
        </mxCell>
        <mxCell id="yRKwyBDqBlV9yVA-gZC7-126" value="" style="shape=partialRectangle;html=1;whiteSpace=wrap;collapsible=0;dropTarget=0;pointerEvents=0;fillColor=none;top=0;left=0;bottom=0;right=0;points=[[0,0.5],[1,0.5]];portConstraint=eastwest;fontSize=16;fontFamily=Courier New;fontStyle=1" vertex="1" parent="yRKwyBDqBlV9yVA-gZC7-125">
          <mxGeometry width="630" height="78" as="geometry" />
        </mxCell>
        <mxCell id="yRKwyBDqBlV9yVA-gZC7-127" value="emb_5" style="shape=partialRectangle;html=1;whiteSpace=wrap;connectable=0;overflow=hidden;fillColor=none;top=0;left=0;bottom=0;right=0;fontSize=16;fontFamily=Courier New;fontStyle=1" vertex="1" parent="yRKwyBDqBlV9yVA-gZC7-126">
          <mxGeometry width="137" height="78" as="geometry" />
        </mxCell>
        <mxCell id="yRKwyBDqBlV9yVA-gZC7-128" value="emb_3" style="shape=partialRectangle;html=1;whiteSpace=wrap;connectable=0;overflow=hidden;fillColor=none;top=0;left=0;bottom=0;right=0;fontSize=16;fontFamily=Courier New;fontStyle=1" vertex="1" parent="yRKwyBDqBlV9yVA-gZC7-126">
          <mxGeometry x="137" width="131" height="78" as="geometry" />
        </mxCell>
        <mxCell id="yRKwyBDqBlV9yVA-gZC7-129" value="..." style="shape=partialRectangle;html=1;whiteSpace=wrap;connectable=0;overflow=hidden;fillColor=none;top=0;left=0;bottom=0;right=0;dashed=1;fontSize=16;fontFamily=Courier New;fontStyle=1;strokeColor=none;" vertex="1" parent="yRKwyBDqBlV9yVA-gZC7-126">
          <mxGeometry x="268" width="225" height="78" as="geometry" />
        </mxCell>
        <mxCell id="yRKwyBDqBlV9yVA-gZC7-130" value="emb_4" style="shape=partialRectangle;html=1;whiteSpace=wrap;connectable=0;overflow=hidden;fillColor=none;top=0;left=0;bottom=0;right=0;fontSize=16;fontFamily=Courier New;fontStyle=1" vertex="1" parent="yRKwyBDqBlV9yVA-gZC7-126">
          <mxGeometry x="493" width="137" height="78" as="geometry" />
        </mxCell>
        <mxCell id="yRKwyBDqBlV9yVA-gZC7-131" value="" style="shape=partialRectangle;html=1;whiteSpace=wrap;collapsible=0;dropTarget=0;pointerEvents=0;fillColor=none;top=0;left=0;bottom=0;right=0;points=[[0,0.5],[1,0.5]];portConstraint=eastwest;fontSize=16;fontFamily=Courier New;fontStyle=1" vertex="1" parent="yRKwyBDqBlV9yVA-gZC7-125">
          <mxGeometry y="78" width="630" height="77" as="geometry" />
        </mxCell>
        <mxCell id="yRKwyBDqBlV9yVA-gZC7-132" value="emb_1" style="shape=partialRectangle;html=1;whiteSpace=wrap;connectable=0;overflow=hidden;fillColor=none;top=0;left=0;bottom=0;right=0;fontSize=16;fontFamily=Courier New;fontStyle=1" vertex="1" parent="yRKwyBDqBlV9yVA-gZC7-131">
          <mxGeometry width="137" height="77" as="geometry" />
        </mxCell>
        <mxCell id="yRKwyBDqBlV9yVA-gZC7-133" value="emb_0" style="shape=partialRectangle;html=1;whiteSpace=wrap;connectable=0;overflow=hidden;fillColor=none;top=0;left=0;bottom=0;right=0;fontSize=16;fontFamily=Courier New;fontStyle=1" vertex="1" parent="yRKwyBDqBlV9yVA-gZC7-131">
          <mxGeometry x="137" width="131" height="77" as="geometry" />
        </mxCell>
        <mxCell id="yRKwyBDqBlV9yVA-gZC7-134" value="..." style="shape=partialRectangle;html=1;whiteSpace=wrap;connectable=0;overflow=hidden;fillColor=none;top=0;left=0;bottom=0;right=0;fontSize=16;fontFamily=Courier New;fontStyle=1" vertex="1" parent="yRKwyBDqBlV9yVA-gZC7-131">
          <mxGeometry x="268" width="225" height="77" as="geometry" />
        </mxCell>
        <mxCell id="yRKwyBDqBlV9yVA-gZC7-135" value="emb_0" style="shape=partialRectangle;html=1;whiteSpace=wrap;connectable=0;overflow=hidden;fillColor=none;top=0;left=0;bottom=0;right=0;fontSize=16;fontFamily=Courier New;fontStyle=1" vertex="1" parent="yRKwyBDqBlV9yVA-gZC7-131">
          <mxGeometry x="493" width="137" height="77" as="geometry" />
        </mxCell>
        <mxCell id="yRKwyBDqBlV9yVA-gZC7-136" value="" style="shape=partialRectangle;html=1;whiteSpace=wrap;collapsible=0;dropTarget=0;pointerEvents=0;fillColor=none;top=0;left=0;bottom=0;right=0;points=[[0,0.5],[1,0.5]];portConstraint=eastwest;strokeColor=none;fontSize=16;fontFamily=Courier New;fontStyle=1" vertex="1" parent="yRKwyBDqBlV9yVA-gZC7-125">
          <mxGeometry y="155" width="630" height="78" as="geometry" />
        </mxCell>
        <mxCell id="yRKwyBDqBlV9yVA-gZC7-137" value="..." style="shape=partialRectangle;html=1;whiteSpace=wrap;connectable=0;overflow=hidden;fillColor=none;top=0;left=0;bottom=0;right=0;fontSize=16;fontFamily=Courier New;fontStyle=1" vertex="1" parent="yRKwyBDqBlV9yVA-gZC7-136">
          <mxGeometry width="137" height="78" as="geometry" />
        </mxCell>
        <mxCell id="yRKwyBDqBlV9yVA-gZC7-138" value="..." style="shape=partialRectangle;html=1;whiteSpace=wrap;connectable=0;overflow=hidden;fillColor=none;top=0;left=0;bottom=0;right=0;fontSize=16;fontFamily=Courier New;fontStyle=1" vertex="1" parent="yRKwyBDqBlV9yVA-gZC7-136">
          <mxGeometry x="137" width="131" height="78" as="geometry" />
        </mxCell>
        <mxCell id="yRKwyBDqBlV9yVA-gZC7-139" value="..." style="shape=partialRectangle;html=1;whiteSpace=wrap;connectable=0;overflow=hidden;fillColor=none;top=0;left=0;bottom=0;right=0;fontSize=16;fontFamily=Courier New;fontStyle=1" vertex="1" parent="yRKwyBDqBlV9yVA-gZC7-136">
          <mxGeometry x="268" width="225" height="78" as="geometry" />
        </mxCell>
        <mxCell id="yRKwyBDqBlV9yVA-gZC7-140" value="..." style="shape=partialRectangle;html=1;whiteSpace=wrap;connectable=0;overflow=hidden;fillColor=none;top=0;left=0;bottom=0;right=0;fontSize=16;fontFamily=Courier New;fontStyle=1" vertex="1" parent="yRKwyBDqBlV9yVA-gZC7-136">
          <mxGeometry x="493" width="137" height="78" as="geometry" />
        </mxCell>
        <mxCell id="yRKwyBDqBlV9yVA-gZC7-141" value="" style="shape=partialRectangle;html=1;whiteSpace=wrap;collapsible=0;dropTarget=0;pointerEvents=0;fillColor=none;top=0;left=0;bottom=0;right=0;points=[[0,0.5],[1,0.5]];portConstraint=eastwest;fontSize=16;fontFamily=Courier New;fontStyle=1" vertex="1" parent="yRKwyBDqBlV9yVA-gZC7-125">
          <mxGeometry y="233" width="630" height="77" as="geometry" />
        </mxCell>
        <mxCell id="yRKwyBDqBlV9yVA-gZC7-142" value="emb_0" style="shape=partialRectangle;html=1;whiteSpace=wrap;connectable=0;overflow=hidden;fillColor=none;top=0;left=0;bottom=0;right=0;fontSize=16;fontFamily=Courier New;fontStyle=1" vertex="1" parent="yRKwyBDqBlV9yVA-gZC7-141">
          <mxGeometry width="137" height="77" as="geometry" />
        </mxCell>
        <mxCell id="yRKwyBDqBlV9yVA-gZC7-143" value="emb_5" style="shape=partialRectangle;html=1;whiteSpace=wrap;connectable=0;overflow=hidden;fillColor=none;top=0;left=0;bottom=0;right=0;fontSize=16;fontFamily=Courier New;fontStyle=1" vertex="1" parent="yRKwyBDqBlV9yVA-gZC7-141">
          <mxGeometry x="137" width="131" height="77" as="geometry" />
        </mxCell>
        <mxCell id="yRKwyBDqBlV9yVA-gZC7-144" value="..." style="shape=partialRectangle;html=1;whiteSpace=wrap;connectable=0;overflow=hidden;fillColor=none;top=0;left=0;bottom=0;right=0;fontSize=16;fontFamily=Courier New;fontStyle=1" vertex="1" parent="yRKwyBDqBlV9yVA-gZC7-141">
          <mxGeometry x="268" width="225" height="77" as="geometry" />
        </mxCell>
        <mxCell id="yRKwyBDqBlV9yVA-gZC7-145" value="emb_0" style="shape=partialRectangle;html=1;whiteSpace=wrap;connectable=0;overflow=hidden;fillColor=none;top=0;left=0;bottom=0;right=0;fontSize=16;fontFamily=Courier New;fontStyle=1" vertex="1" parent="yRKwyBDqBlV9yVA-gZC7-141">
          <mxGeometry x="493" width="137" height="77" as="geometry" />
        </mxCell>
        <mxCell id="yRKwyBDqBlV9yVA-gZC7-146" value="&lt;span&gt;&lt;font style=&quot;font-size: 19px&quot;&gt;A&lt;/font&gt;&lt;/span&gt;" style="text;html=1;strokeColor=none;fillColor=none;align=center;verticalAlign=middle;whiteSpace=wrap;rounded=0;dashed=1;fontFamily=Courier New;fontSize=16;fontStyle=1" vertex="1" parent="1">
          <mxGeometry x="729" y="40" width="40" height="20" as="geometry" />
        </mxCell>
        <mxCell id="yRKwyBDqBlV9yVA-gZC7-147" value="Рис. 1" style="text;html=1;align=center;verticalAlign=middle;resizable=0;points=[];autosize=1;fontSize=16;fontFamily=Courier New;sketch=0;fontStyle=1" vertex="1" parent="1">
          <mxGeometry x="330" y="400" width="70" height="20" as="geometry" />
        </mxCell>
        <mxCell id="yRKwyBDqBlV9yVA-gZC7-171" value="&lt;span&gt;&lt;font style=&quot;font-size: 19px&quot;&gt;A_ohe&lt;/font&gt;&lt;/span&gt;" style="text;html=1;strokeColor=none;fillColor=none;align=center;verticalAlign=middle;whiteSpace=wrap;rounded=0;dashed=1;fontFamily=Courier New;fontSize=16;fontStyle=1" vertex="1" parent="1">
          <mxGeometry x="715" y="500" width="40" height="20" as="geometry" />
        </mxCell>
        <mxCell id="yRKwyBDqBlV9yVA-gZC7-172" value="Рис. 2" style="text;html=1;align=center;verticalAlign=middle;resizable=0;points=[];autosize=1;fontSize=16;fontFamily=Courier New;sketch=0;fontStyle=1" vertex="1" parent="1">
          <mxGeometry x="320" y="820" width="70" height="20" as="geometry" />
        </mxCell>
        <mxCell id="yRKwyBDqBlV9yVA-gZC7-173" value="" style="shape=table;html=1;whiteSpace=wrap;startSize=0;container=1;collapsible=0;childLayout=tableLayout;rounded=0;shadow=0;swimlaneFillColor=#ffffff;strokeColor=#000000;fillColor=#D4E1F5;fontStyle=1;fontFamily=Courier New;textOpacity=50;" vertex="1" parent="1">
          <mxGeometry x="414" y="480" width="670" height="300" as="geometry" />
        </mxCell>
        <mxCell id="yRKwyBDqBlV9yVA-gZC7-174" value="" style="shape=partialRectangle;html=1;whiteSpace=wrap;collapsible=0;dropTarget=0;pointerEvents=0;fillColor=none;top=0;left=0;bottom=0;right=0;points=[[0,0.5],[1,0.5]];portConstraint=eastwest;fontStyle=1;fontFamily=Courier New;" vertex="1" parent="yRKwyBDqBlV9yVA-gZC7-173">
          <mxGeometry width="670" height="54" as="geometry" />
        </mxCell>
        <mxCell id="yRKwyBDqBlV9yVA-gZC7-175" value="0" style="shape=partialRectangle;html=1;whiteSpace=wrap;connectable=0;overflow=hidden;fillColor=none;top=0;left=0;bottom=0;right=0;fontStyle=1;fontFamily=Courier New;" vertex="1" parent="yRKwyBDqBlV9yVA-gZC7-174">
          <mxGeometry width="44" height="54" as="geometry" />
        </mxCell>
        <mxCell id="yRKwyBDqBlV9yVA-gZC7-176" value="0" style="shape=partialRectangle;html=1;whiteSpace=wrap;connectable=0;overflow=hidden;fillColor=none;top=0;left=0;bottom=0;right=0;fontStyle=1;fontFamily=Courier New;" vertex="1" parent="yRKwyBDqBlV9yVA-gZC7-174">
          <mxGeometry x="44" width="42" height="54" as="geometry" />
        </mxCell>
        <mxCell id="yRKwyBDqBlV9yVA-gZC7-177" value="0" style="shape=partialRectangle;html=1;whiteSpace=wrap;connectable=0;overflow=hidden;fillColor=none;top=0;left=0;bottom=0;right=0;fontStyle=1;fontFamily=Courier New;" vertex="1" parent="yRKwyBDqBlV9yVA-gZC7-174">
          <mxGeometry x="86" width="44" height="54" as="geometry" />
        </mxCell>
        <mxCell id="yRKwyBDqBlV9yVA-gZC7-178" value="0" style="shape=partialRectangle;html=1;whiteSpace=wrap;connectable=0;overflow=hidden;fillColor=none;top=0;left=0;bottom=0;right=0;fontStyle=1;fontFamily=Courier New;" vertex="1" parent="yRKwyBDqBlV9yVA-gZC7-174">
          <mxGeometry x="130" width="40" height="54" as="geometry" />
        </mxCell>
        <mxCell id="yRKwyBDqBlV9yVA-gZC7-179" value="1" style="shape=partialRectangle;html=1;whiteSpace=wrap;connectable=0;overflow=hidden;fillColor=none;top=0;left=0;bottom=0;right=0;strokeColor=#000000;fontStyle=1;fontFamily=Courier New;perimeterSpacing=0;" vertex="1" parent="yRKwyBDqBlV9yVA-gZC7-174">
          <mxGeometry x="170" width="44" height="54" as="geometry" />
        </mxCell>
        <mxCell id="yRKwyBDqBlV9yVA-gZC7-180" value="0" style="shape=partialRectangle;html=1;whiteSpace=wrap;connectable=0;overflow=hidden;fillColor=none;top=0;left=0;bottom=0;right=0;fontStyle=1;fontFamily=Courier New;" vertex="1" parent="yRKwyBDqBlV9yVA-gZC7-174">
          <mxGeometry x="214" width="44" height="54" as="geometry" />
        </mxCell>
        <mxCell id="yRKwyBDqBlV9yVA-gZC7-181" value="0" style="shape=partialRectangle;html=1;whiteSpace=wrap;connectable=0;overflow=hidden;fillColor=none;top=0;left=0;bottom=0;right=0;fontStyle=1;fontFamily=Courier New;" vertex="1" parent="yRKwyBDqBlV9yVA-gZC7-174">
          <mxGeometry x="258" width="41" height="54" as="geometry" />
        </mxCell>
        <mxCell id="yRKwyBDqBlV9yVA-gZC7-182" value="1" style="shape=partialRectangle;html=1;whiteSpace=wrap;connectable=0;overflow=hidden;fillColor=none;top=0;left=0;bottom=0;right=0;fontStyle=1;fontFamily=Courier New;" vertex="1" parent="yRKwyBDqBlV9yVA-gZC7-174">
          <mxGeometry x="299" width="36" height="54" as="geometry" />
        </mxCell>
        <mxCell id="yRKwyBDqBlV9yVA-gZC7-183" value="0" style="shape=partialRectangle;html=1;whiteSpace=wrap;connectable=0;overflow=hidden;fillColor=none;top=0;left=0;bottom=0;right=0;fontStyle=1;fontFamily=Courier New;" vertex="1" parent="yRKwyBDqBlV9yVA-gZC7-174">
          <mxGeometry x="335" width="36" height="54" as="geometry" />
        </mxCell>
        <mxCell id="yRKwyBDqBlV9yVA-gZC7-184" value="0" style="shape=partialRectangle;html=1;whiteSpace=wrap;connectable=0;overflow=hidden;fillColor=none;top=0;left=0;bottom=0;right=0;fontStyle=1;fontFamily=Courier New;" vertex="1" parent="yRKwyBDqBlV9yVA-gZC7-174">
          <mxGeometry x="371" width="43" height="54" as="geometry" />
        </mxCell>
        <mxCell id="yRKwyBDqBlV9yVA-gZC7-185" value="" style="shape=partialRectangle;html=1;whiteSpace=wrap;connectable=0;overflow=hidden;fillColor=none;top=0;left=0;bottom=0;right=0;fontStyle=1;fontFamily=Courier New;" vertex="1" parent="yRKwyBDqBlV9yVA-gZC7-174">
          <mxGeometry x="414" width="54" height="54" as="geometry" />
        </mxCell>
        <mxCell id="yRKwyBDqBlV9yVA-gZC7-186" value="0" style="shape=partialRectangle;html=1;whiteSpace=wrap;connectable=0;overflow=hidden;fillColor=none;top=0;left=0;bottom=0;right=0;fontStyle=1;fontFamily=Courier New;" vertex="1" parent="yRKwyBDqBlV9yVA-gZC7-174">
          <mxGeometry x="468" width="31" height="54" as="geometry" />
        </mxCell>
        <mxCell id="yRKwyBDqBlV9yVA-gZC7-187" value="0" style="shape=partialRectangle;html=1;whiteSpace=wrap;connectable=0;overflow=hidden;fillColor=none;top=0;left=0;bottom=0;right=0;fontStyle=1;fontFamily=Courier New;" vertex="1" parent="yRKwyBDqBlV9yVA-gZC7-174">
          <mxGeometry x="499" width="41" height="54" as="geometry" />
        </mxCell>
        <mxCell id="yRKwyBDqBlV9yVA-gZC7-188" value="0" style="shape=partialRectangle;html=1;whiteSpace=wrap;connectable=0;overflow=hidden;fillColor=none;top=0;left=0;bottom=0;right=0;fontStyle=1;fontFamily=Courier New;" vertex="1" parent="yRKwyBDqBlV9yVA-gZC7-174">
          <mxGeometry x="540" width="44" height="54" as="geometry" />
        </mxCell>
        <mxCell id="yRKwyBDqBlV9yVA-gZC7-189" value="1" style="shape=partialRectangle;html=1;whiteSpace=wrap;connectable=0;overflow=hidden;fillColor=none;top=0;left=0;bottom=0;right=0;fontStyle=1;fontFamily=Courier New;" vertex="1" parent="yRKwyBDqBlV9yVA-gZC7-174">
          <mxGeometry x="584" width="42" height="54" as="geometry" />
        </mxCell>
        <mxCell id="yRKwyBDqBlV9yVA-gZC7-190" value="0" style="shape=partialRectangle;html=1;whiteSpace=wrap;connectable=0;overflow=hidden;fillColor=none;top=0;left=0;bottom=0;right=0;fontStyle=1;fontFamily=Courier New;" vertex="1" parent="yRKwyBDqBlV9yVA-gZC7-174">
          <mxGeometry x="626" width="44" height="54" as="geometry" />
        </mxCell>
        <mxCell id="yRKwyBDqBlV9yVA-gZC7-191" value="" style="shape=partialRectangle;html=1;whiteSpace=wrap;collapsible=0;dropTarget=0;pointerEvents=0;fillColor=none;top=0;left=0;bottom=0;right=0;points=[[0,0.5],[1,0.5]];portConstraint=eastwest;fontStyle=1;fontFamily=Courier New;" vertex="1" parent="yRKwyBDqBlV9yVA-gZC7-173">
          <mxGeometry y="54" width="670" height="51" as="geometry" />
        </mxCell>
        <mxCell id="yRKwyBDqBlV9yVA-gZC7-192" value="0" style="shape=partialRectangle;html=1;whiteSpace=wrap;connectable=0;overflow=hidden;fillColor=none;top=0;left=0;bottom=0;right=0;fontStyle=1;fontFamily=Courier New;" vertex="1" parent="yRKwyBDqBlV9yVA-gZC7-191">
          <mxGeometry width="44" height="51" as="geometry" />
        </mxCell>
        <mxCell id="yRKwyBDqBlV9yVA-gZC7-193" value="1" style="shape=partialRectangle;html=1;whiteSpace=wrap;connectable=0;overflow=hidden;fillColor=none;top=0;left=0;bottom=0;right=0;fontStyle=1;fontFamily=Courier New;" vertex="1" parent="yRKwyBDqBlV9yVA-gZC7-191">
          <mxGeometry x="44" width="42" height="51" as="geometry" />
        </mxCell>
        <mxCell id="yRKwyBDqBlV9yVA-gZC7-194" value="0" style="shape=partialRectangle;html=1;whiteSpace=wrap;connectable=0;overflow=hidden;fillColor=none;top=0;left=0;bottom=0;right=0;fontStyle=1;fontFamily=Courier New;" vertex="1" parent="yRKwyBDqBlV9yVA-gZC7-191">
          <mxGeometry x="86" width="44" height="51" as="geometry" />
        </mxCell>
        <mxCell id="yRKwyBDqBlV9yVA-gZC7-195" value="0" style="shape=partialRectangle;html=1;whiteSpace=wrap;connectable=0;overflow=hidden;fillColor=none;top=0;left=0;bottom=0;right=0;fontStyle=1;fontFamily=Courier New;" vertex="1" parent="yRKwyBDqBlV9yVA-gZC7-191">
          <mxGeometry x="130" width="40" height="51" as="geometry" />
        </mxCell>
        <mxCell id="yRKwyBDqBlV9yVA-gZC7-196" value="0" style="shape=partialRectangle;html=1;whiteSpace=wrap;connectable=0;overflow=hidden;fillColor=none;top=0;left=0;bottom=0;right=0;fontStyle=1;fontFamily=Courier New;" vertex="1" parent="yRKwyBDqBlV9yVA-gZC7-191">
          <mxGeometry x="170" width="44" height="51" as="geometry" />
        </mxCell>
        <mxCell id="yRKwyBDqBlV9yVA-gZC7-197" value="0" style="shape=partialRectangle;html=1;whiteSpace=wrap;connectable=0;overflow=hidden;fillColor=none;top=0;left=0;bottom=0;right=0;fontStyle=1;fontFamily=Courier New;" vertex="1" parent="yRKwyBDqBlV9yVA-gZC7-191">
          <mxGeometry x="214" width="44" height="51" as="geometry" />
        </mxCell>
        <mxCell id="yRKwyBDqBlV9yVA-gZC7-198" value="0" style="shape=partialRectangle;html=1;whiteSpace=wrap;connectable=0;overflow=hidden;fillColor=none;top=0;left=0;bottom=0;right=0;fontStyle=1;fontFamily=Courier New;" vertex="1" parent="yRKwyBDqBlV9yVA-gZC7-191">
          <mxGeometry x="258" width="41" height="51" as="geometry" />
        </mxCell>
        <mxCell id="yRKwyBDqBlV9yVA-gZC7-199" value="0" style="shape=partialRectangle;html=1;whiteSpace=wrap;connectable=0;overflow=hidden;fillColor=none;top=0;left=0;bottom=0;right=0;fontStyle=1;fontFamily=Courier New;" vertex="1" parent="yRKwyBDqBlV9yVA-gZC7-191">
          <mxGeometry x="299" width="36" height="51" as="geometry" />
        </mxCell>
        <mxCell id="yRKwyBDqBlV9yVA-gZC7-200" value="0" style="shape=partialRectangle;html=1;whiteSpace=wrap;connectable=0;overflow=hidden;fillColor=none;top=0;left=0;bottom=0;right=0;fontStyle=1;fontFamily=Courier New;" vertex="1" parent="yRKwyBDqBlV9yVA-gZC7-191">
          <mxGeometry x="335" width="36" height="51" as="geometry" />
        </mxCell>
        <mxCell id="yRKwyBDqBlV9yVA-gZC7-201" value="0" style="shape=partialRectangle;html=1;whiteSpace=wrap;connectable=0;overflow=hidden;fillColor=none;top=0;left=0;bottom=0;right=0;fontStyle=1;fontFamily=Courier New;" vertex="1" parent="yRKwyBDqBlV9yVA-gZC7-191">
          <mxGeometry x="371" width="43" height="51" as="geometry" />
        </mxCell>
        <mxCell id="yRKwyBDqBlV9yVA-gZC7-202" value="" style="shape=partialRectangle;html=1;whiteSpace=wrap;connectable=0;overflow=hidden;fillColor=none;top=0;left=0;bottom=0;right=0;fontStyle=1;fontFamily=Courier New;" vertex="1" parent="yRKwyBDqBlV9yVA-gZC7-191">
          <mxGeometry x="414" width="54" height="51" as="geometry" />
        </mxCell>
        <mxCell id="yRKwyBDqBlV9yVA-gZC7-203" value="0" style="shape=partialRectangle;html=1;whiteSpace=wrap;connectable=0;overflow=hidden;fillColor=none;top=0;left=0;bottom=0;right=0;fontStyle=1;fontFamily=Courier New;" vertex="1" parent="yRKwyBDqBlV9yVA-gZC7-191">
          <mxGeometry x="468" width="31" height="51" as="geometry" />
        </mxCell>
        <mxCell id="yRKwyBDqBlV9yVA-gZC7-204" value="0" style="shape=partialRectangle;html=1;whiteSpace=wrap;connectable=0;overflow=hidden;fillColor=none;top=0;left=0;bottom=0;right=0;fontStyle=1;fontFamily=Courier New;" vertex="1" parent="yRKwyBDqBlV9yVA-gZC7-191">
          <mxGeometry x="499" width="41" height="51" as="geometry" />
        </mxCell>
        <mxCell id="yRKwyBDqBlV9yVA-gZC7-205" value="0" style="shape=partialRectangle;html=1;whiteSpace=wrap;connectable=0;overflow=hidden;fillColor=none;top=0;left=0;bottom=0;right=0;fontStyle=1;fontFamily=Courier New;" vertex="1" parent="yRKwyBDqBlV9yVA-gZC7-191">
          <mxGeometry x="540" width="44" height="51" as="geometry" />
        </mxCell>
        <mxCell id="yRKwyBDqBlV9yVA-gZC7-206" value="0" style="shape=partialRectangle;html=1;whiteSpace=wrap;connectable=0;overflow=hidden;fillColor=none;top=0;left=0;bottom=0;right=0;fontStyle=1;fontFamily=Courier New;" vertex="1" parent="yRKwyBDqBlV9yVA-gZC7-191">
          <mxGeometry x="584" width="42" height="51" as="geometry" />
        </mxCell>
        <mxCell id="yRKwyBDqBlV9yVA-gZC7-207" value="0" style="shape=partialRectangle;html=1;whiteSpace=wrap;connectable=0;overflow=hidden;fillColor=none;top=0;left=0;bottom=0;right=0;fontStyle=1;fontFamily=Courier New;" vertex="1" parent="yRKwyBDqBlV9yVA-gZC7-191">
          <mxGeometry x="626" width="44" height="51" as="geometry" />
        </mxCell>
        <mxCell id="yRKwyBDqBlV9yVA-gZC7-208" value="" style="shape=partialRectangle;html=1;whiteSpace=wrap;collapsible=0;dropTarget=0;pointerEvents=0;fillColor=none;top=0;left=0;bottom=0;right=0;points=[[0,0.5],[1,0.5]];portConstraint=eastwest;fontStyle=1;fontFamily=Courier New;" vertex="1" parent="yRKwyBDqBlV9yVA-gZC7-173">
          <mxGeometry y="105" width="670" height="141" as="geometry" />
        </mxCell>
        <mxCell id="yRKwyBDqBlV9yVA-gZC7-209" value="" style="shape=partialRectangle;html=1;whiteSpace=wrap;connectable=0;overflow=hidden;fillColor=none;top=0;left=0;bottom=0;right=0;fontStyle=1;fontFamily=Courier New;" vertex="1" parent="yRKwyBDqBlV9yVA-gZC7-208">
          <mxGeometry width="44" height="141" as="geometry" />
        </mxCell>
        <mxCell id="yRKwyBDqBlV9yVA-gZC7-210" value="" style="shape=partialRectangle;html=1;whiteSpace=wrap;connectable=0;overflow=hidden;fillColor=none;top=0;left=0;bottom=0;right=0;fontStyle=1;fontFamily=Courier New;" vertex="1" parent="yRKwyBDqBlV9yVA-gZC7-208">
          <mxGeometry x="44" width="42" height="141" as="geometry" />
        </mxCell>
        <mxCell id="yRKwyBDqBlV9yVA-gZC7-211" value="" style="shape=partialRectangle;html=1;whiteSpace=wrap;connectable=0;overflow=hidden;fillColor=none;top=0;left=0;bottom=0;right=0;fontStyle=1;fontFamily=Courier New;" vertex="1" parent="yRKwyBDqBlV9yVA-gZC7-208">
          <mxGeometry x="86" width="44" height="141" as="geometry" />
        </mxCell>
        <mxCell id="yRKwyBDqBlV9yVA-gZC7-212" value="" style="shape=partialRectangle;html=1;whiteSpace=wrap;connectable=0;overflow=hidden;fillColor=none;top=0;left=0;bottom=0;right=0;fontStyle=1;fontFamily=Courier New;" vertex="1" parent="yRKwyBDqBlV9yVA-gZC7-208">
          <mxGeometry x="130" width="40" height="141" as="geometry" />
        </mxCell>
        <mxCell id="yRKwyBDqBlV9yVA-gZC7-213" value="" style="shape=partialRectangle;html=1;whiteSpace=wrap;connectable=0;overflow=hidden;fillColor=none;top=0;left=0;bottom=0;right=0;fontStyle=1;fontFamily=Courier New;" vertex="1" parent="yRKwyBDqBlV9yVA-gZC7-208">
          <mxGeometry x="170" width="44" height="141" as="geometry" />
        </mxCell>
        <mxCell id="yRKwyBDqBlV9yVA-gZC7-214" value="" style="shape=partialRectangle;html=1;whiteSpace=wrap;connectable=0;overflow=hidden;fillColor=none;top=0;left=0;bottom=0;right=0;fontStyle=1;fontFamily=Courier New;dashed=1;" vertex="1" parent="yRKwyBDqBlV9yVA-gZC7-208">
          <mxGeometry x="214" width="44" height="141" as="geometry" />
        </mxCell>
        <mxCell id="yRKwyBDqBlV9yVA-gZC7-215" value="" style="shape=partialRectangle;html=1;whiteSpace=wrap;connectable=0;overflow=hidden;fillColor=none;top=0;left=0;bottom=0;right=0;fontStyle=1;fontFamily=Courier New;" vertex="1" parent="yRKwyBDqBlV9yVA-gZC7-208">
          <mxGeometry x="258" width="41" height="141" as="geometry" />
        </mxCell>
        <mxCell id="yRKwyBDqBlV9yVA-gZC7-216" value="" style="shape=partialRectangle;html=1;whiteSpace=wrap;connectable=0;overflow=hidden;fillColor=none;top=0;left=0;bottom=0;right=0;fontStyle=1;fontFamily=Courier New;" vertex="1" parent="yRKwyBDqBlV9yVA-gZC7-208">
          <mxGeometry x="299" width="36" height="141" as="geometry" />
        </mxCell>
        <mxCell id="yRKwyBDqBlV9yVA-gZC7-217" value="" style="shape=partialRectangle;html=1;whiteSpace=wrap;connectable=0;overflow=hidden;fillColor=none;top=0;left=0;bottom=0;right=0;fontStyle=1;fontFamily=Courier New;" vertex="1" parent="yRKwyBDqBlV9yVA-gZC7-208">
          <mxGeometry x="335" width="36" height="141" as="geometry" />
        </mxCell>
        <mxCell id="yRKwyBDqBlV9yVA-gZC7-218" value="" style="shape=partialRectangle;html=1;whiteSpace=wrap;connectable=0;overflow=hidden;fillColor=none;top=0;left=0;bottom=0;right=0;fontStyle=1;fontFamily=Courier New;" vertex="1" parent="yRKwyBDqBlV9yVA-gZC7-208">
          <mxGeometry x="371" width="43" height="141" as="geometry" />
        </mxCell>
        <mxCell id="yRKwyBDqBlV9yVA-gZC7-219" value="..." style="shape=partialRectangle;html=1;whiteSpace=wrap;connectable=0;overflow=hidden;fillColor=none;top=0;left=0;bottom=0;right=0;fontStyle=1;fontFamily=Courier New;" vertex="1" parent="yRKwyBDqBlV9yVA-gZC7-208">
          <mxGeometry x="414" width="54" height="141" as="geometry" />
        </mxCell>
        <mxCell id="yRKwyBDqBlV9yVA-gZC7-220" value="" style="shape=partialRectangle;html=1;whiteSpace=wrap;connectable=0;overflow=hidden;fillColor=none;top=0;left=0;bottom=0;right=0;fontStyle=1;fontFamily=Courier New;" vertex="1" parent="yRKwyBDqBlV9yVA-gZC7-208">
          <mxGeometry x="468" width="31" height="141" as="geometry" />
        </mxCell>
        <mxCell id="yRKwyBDqBlV9yVA-gZC7-221" value="" style="shape=partialRectangle;html=1;whiteSpace=wrap;connectable=0;overflow=hidden;fillColor=none;top=0;left=0;bottom=0;right=0;fontStyle=1;fontFamily=Courier New;" vertex="1" parent="yRKwyBDqBlV9yVA-gZC7-208">
          <mxGeometry x="499" width="41" height="141" as="geometry" />
        </mxCell>
        <mxCell id="yRKwyBDqBlV9yVA-gZC7-222" value="" style="shape=partialRectangle;html=1;whiteSpace=wrap;connectable=0;overflow=hidden;fillColor=none;top=0;left=0;bottom=0;right=0;fontStyle=1;fontFamily=Courier New;" vertex="1" parent="yRKwyBDqBlV9yVA-gZC7-208">
          <mxGeometry x="540" width="44" height="141" as="geometry" />
        </mxCell>
        <mxCell id="yRKwyBDqBlV9yVA-gZC7-223" value="" style="shape=partialRectangle;html=1;whiteSpace=wrap;connectable=0;overflow=hidden;fillColor=none;top=0;left=0;bottom=0;right=0;fontStyle=1;fontFamily=Courier New;" vertex="1" parent="yRKwyBDqBlV9yVA-gZC7-208">
          <mxGeometry x="584" width="42" height="141" as="geometry" />
        </mxCell>
        <mxCell id="yRKwyBDqBlV9yVA-gZC7-224" value="" style="shape=partialRectangle;html=1;whiteSpace=wrap;connectable=0;overflow=hidden;fillColor=none;top=0;left=0;bottom=0;right=0;fontStyle=1;fontFamily=Courier New;" vertex="1" parent="yRKwyBDqBlV9yVA-gZC7-208">
          <mxGeometry x="626" width="44" height="141" as="geometry" />
        </mxCell>
        <mxCell id="yRKwyBDqBlV9yVA-gZC7-225" value="" style="shape=partialRectangle;html=1;whiteSpace=wrap;collapsible=0;dropTarget=0;pointerEvents=0;fillColor=none;top=0;left=0;bottom=0;right=0;points=[[0,0.5],[1,0.5]];portConstraint=eastwest;fontStyle=1;fontFamily=Courier New;" vertex="1" parent="yRKwyBDqBlV9yVA-gZC7-173">
          <mxGeometry y="246" width="670" height="54" as="geometry" />
        </mxCell>
        <mxCell id="yRKwyBDqBlV9yVA-gZC7-226" value="0" style="shape=partialRectangle;html=1;whiteSpace=wrap;connectable=0;overflow=hidden;fillColor=none;top=0;left=0;bottom=0;right=0;fontStyle=1;fontFamily=Courier New;" vertex="1" parent="yRKwyBDqBlV9yVA-gZC7-225">
          <mxGeometry width="44" height="54" as="geometry" />
        </mxCell>
        <mxCell id="yRKwyBDqBlV9yVA-gZC7-227" value="0" style="shape=partialRectangle;html=1;whiteSpace=wrap;connectable=0;overflow=hidden;fillColor=none;top=0;left=0;bottom=0;right=0;fontStyle=1;fontFamily=Courier New;" vertex="1" parent="yRKwyBDqBlV9yVA-gZC7-225">
          <mxGeometry x="44" width="42" height="54" as="geometry" />
        </mxCell>
        <mxCell id="yRKwyBDqBlV9yVA-gZC7-228" value="0" style="shape=partialRectangle;html=1;whiteSpace=wrap;connectable=0;overflow=hidden;fillColor=none;top=0;left=0;bottom=0;right=0;fontStyle=1;fontFamily=Courier New;" vertex="1" parent="yRKwyBDqBlV9yVA-gZC7-225">
          <mxGeometry x="86" width="44" height="54" as="geometry" />
        </mxCell>
        <mxCell id="yRKwyBDqBlV9yVA-gZC7-229" value="0" style="shape=partialRectangle;html=1;whiteSpace=wrap;connectable=0;overflow=hidden;fillColor=none;top=0;left=0;bottom=0;right=0;fontStyle=1;fontFamily=Courier New;" vertex="1" parent="yRKwyBDqBlV9yVA-gZC7-225">
          <mxGeometry x="130" width="40" height="54" as="geometry" />
        </mxCell>
        <mxCell id="yRKwyBDqBlV9yVA-gZC7-230" value="0" style="shape=partialRectangle;html=1;whiteSpace=wrap;connectable=0;overflow=hidden;fillColor=none;top=0;left=0;bottom=0;right=0;fontStyle=1;fontFamily=Courier New;" vertex="1" parent="yRKwyBDqBlV9yVA-gZC7-225">
          <mxGeometry x="170" width="44" height="54" as="geometry" />
        </mxCell>
        <mxCell id="yRKwyBDqBlV9yVA-gZC7-231" value="0" style="shape=partialRectangle;html=1;whiteSpace=wrap;connectable=0;overflow=hidden;fillColor=none;top=0;left=0;bottom=0;right=0;fontStyle=1;fontFamily=Courier New;" vertex="1" parent="yRKwyBDqBlV9yVA-gZC7-225">
          <mxGeometry x="214" width="44" height="54" as="geometry" />
        </mxCell>
        <mxCell id="yRKwyBDqBlV9yVA-gZC7-232" value="0" style="shape=partialRectangle;html=1;whiteSpace=wrap;connectable=0;overflow=hidden;fillColor=none;top=0;left=0;bottom=0;right=0;fontStyle=1;fontFamily=Courier New;" vertex="1" parent="yRKwyBDqBlV9yVA-gZC7-225">
          <mxGeometry x="258" width="41" height="54" as="geometry" />
        </mxCell>
        <mxCell id="yRKwyBDqBlV9yVA-gZC7-233" value="0" style="shape=partialRectangle;html=1;whiteSpace=wrap;connectable=0;overflow=hidden;fillColor=none;top=0;left=0;bottom=0;right=0;fontStyle=1;fontFamily=Courier New;" vertex="1" parent="yRKwyBDqBlV9yVA-gZC7-225">
          <mxGeometry x="299" width="36" height="54" as="geometry" />
        </mxCell>
        <mxCell id="yRKwyBDqBlV9yVA-gZC7-234" value="0" style="shape=partialRectangle;html=1;whiteSpace=wrap;connectable=0;overflow=hidden;fillColor=none;top=0;left=0;bottom=0;right=0;fontStyle=1;fontFamily=Courier New;" vertex="1" parent="yRKwyBDqBlV9yVA-gZC7-225">
          <mxGeometry x="335" width="36" height="54" as="geometry" />
        </mxCell>
        <mxCell id="yRKwyBDqBlV9yVA-gZC7-235" value="1" style="shape=partialRectangle;html=1;whiteSpace=wrap;connectable=0;overflow=hidden;fillColor=none;top=0;left=0;bottom=0;right=0;fontStyle=1;fontFamily=Courier New;" vertex="1" parent="yRKwyBDqBlV9yVA-gZC7-225">
          <mxGeometry x="371" width="43" height="54" as="geometry" />
        </mxCell>
        <mxCell id="yRKwyBDqBlV9yVA-gZC7-236" value="" style="shape=partialRectangle;html=1;whiteSpace=wrap;connectable=0;overflow=hidden;fillColor=none;top=0;left=0;bottom=0;right=0;fontStyle=1;fontFamily=Courier New;" vertex="1" parent="yRKwyBDqBlV9yVA-gZC7-225">
          <mxGeometry x="414" width="54" height="54" as="geometry" />
        </mxCell>
        <mxCell id="yRKwyBDqBlV9yVA-gZC7-237" value="0" style="shape=partialRectangle;html=1;whiteSpace=wrap;connectable=0;overflow=hidden;fillColor=none;top=0;left=0;bottom=0;right=0;fontStyle=1;fontFamily=Courier New;" vertex="1" parent="yRKwyBDqBlV9yVA-gZC7-225">
          <mxGeometry x="468" width="31" height="54" as="geometry" />
        </mxCell>
        <mxCell id="yRKwyBDqBlV9yVA-gZC7-238" value="0" style="shape=partialRectangle;html=1;whiteSpace=wrap;connectable=0;overflow=hidden;fillColor=none;top=0;left=0;bottom=0;right=0;fontStyle=1;fontFamily=Courier New;" vertex="1" parent="yRKwyBDqBlV9yVA-gZC7-225">
          <mxGeometry x="499" width="41" height="54" as="geometry" />
        </mxCell>
        <mxCell id="yRKwyBDqBlV9yVA-gZC7-239" value="0" style="shape=partialRectangle;html=1;whiteSpace=wrap;connectable=0;overflow=hidden;fillColor=none;top=0;left=0;bottom=0;right=0;fontStyle=1;fontFamily=Courier New;" vertex="1" parent="yRKwyBDqBlV9yVA-gZC7-225">
          <mxGeometry x="540" width="44" height="54" as="geometry" />
        </mxCell>
        <mxCell id="yRKwyBDqBlV9yVA-gZC7-240" value="0" style="shape=partialRectangle;html=1;whiteSpace=wrap;connectable=0;overflow=hidden;fillColor=none;top=0;left=0;bottom=0;right=0;fontStyle=1;fontFamily=Courier New;" vertex="1" parent="yRKwyBDqBlV9yVA-gZC7-225">
          <mxGeometry x="584" width="42" height="54" as="geometry" />
        </mxCell>
        <mxCell id="yRKwyBDqBlV9yVA-gZC7-241" value="0" style="shape=partialRectangle;html=1;whiteSpace=wrap;connectable=0;overflow=hidden;fillColor=none;top=0;left=0;bottom=0;right=0;fontStyle=1;fontFamily=Courier New;" vertex="1" parent="yRKwyBDqBlV9yVA-gZC7-225">
          <mxGeometry x="626" width="44" height="54" as="geometry" />
        </mxCell>
        <mxCell id="yRKwyBDqBlV9yVA-gZC7-242" value="" style="edgeStyle=orthogonalEdgeStyle;rounded=0;orthogonalLoop=1;jettySize=auto;html=1;fontFamily=Courier New;fontSize=16;sketch=1;fontStyle=1" edge="1" parent="1">
          <mxGeometry relative="1" as="geometry">
            <mxPoint x="340" y="629.58" as="sourcePoint" />
            <mxPoint x="390" y="629.58" as="targetPoint" />
            <Array as="points">
              <mxPoint x="330" y="630.08" />
              <mxPoint x="330" y="630.08" />
            </Array>
          </mxGeometry>
        </mxCell>
        <mxCell id="yRKwyBDqBlV9yVA-gZC7-243" value="" style="shape=table;html=1;whiteSpace=wrap;startSize=0;container=1;collapsible=0;childLayout=tableLayout;fontSize=16;fontFamily=Courier New;fontStyle=1;swimlaneFillColor=#ffffff;fillColor=#D4E1F5;sketch=0;" vertex="1" parent="1">
          <mxGeometry x="70" y="475" width="240" height="310" as="geometry" />
        </mxCell>
        <mxCell id="yRKwyBDqBlV9yVA-gZC7-244" value="" style="shape=partialRectangle;html=1;whiteSpace=wrap;collapsible=0;dropTarget=0;pointerEvents=0;fillColor=none;top=0;left=0;bottom=0;right=0;points=[[0,0.5],[1,0.5]];portConstraint=eastwest;fontSize=16;fontFamily=Courier New;fontStyle=1" vertex="1" parent="yRKwyBDqBlV9yVA-gZC7-243">
          <mxGeometry width="240" height="78" as="geometry" />
        </mxCell>
        <mxCell id="yRKwyBDqBlV9yVA-gZC7-245" value="5" style="shape=partialRectangle;html=1;whiteSpace=wrap;connectable=0;overflow=hidden;fillColor=none;top=0;left=0;bottom=0;right=0;fontSize=16;fontFamily=Courier New;fontStyle=1" vertex="1" parent="yRKwyBDqBlV9yVA-gZC7-244">
          <mxGeometry width="51" height="78" as="geometry" />
        </mxCell>
        <mxCell id="yRKwyBDqBlV9yVA-gZC7-246" value="3" style="shape=partialRectangle;html=1;whiteSpace=wrap;connectable=0;overflow=hidden;fillColor=none;top=0;left=0;bottom=0;right=0;fontSize=16;fontFamily=Courier New;fontStyle=1" vertex="1" parent="yRKwyBDqBlV9yVA-gZC7-244">
          <mxGeometry x="51" width="52" height="78" as="geometry" />
        </mxCell>
        <mxCell id="yRKwyBDqBlV9yVA-gZC7-247" value="..." style="shape=partialRectangle;html=1;whiteSpace=wrap;connectable=0;overflow=hidden;fillColor=none;top=0;left=0;bottom=0;right=0;dashed=1;fontSize=16;fontFamily=Courier New;fontStyle=1;strokeColor=none;" vertex="1" parent="yRKwyBDqBlV9yVA-gZC7-244">
          <mxGeometry x="103" width="86" height="78" as="geometry" />
        </mxCell>
        <mxCell id="yRKwyBDqBlV9yVA-gZC7-248" value="4" style="shape=partialRectangle;html=1;whiteSpace=wrap;connectable=0;overflow=hidden;fillColor=none;top=0;left=0;bottom=0;right=0;fontSize=16;fontFamily=Courier New;fontStyle=1" vertex="1" parent="yRKwyBDqBlV9yVA-gZC7-244">
          <mxGeometry x="189" width="51" height="78" as="geometry" />
        </mxCell>
        <mxCell id="yRKwyBDqBlV9yVA-gZC7-249" value="" style="shape=partialRectangle;html=1;whiteSpace=wrap;collapsible=0;dropTarget=0;pointerEvents=0;fillColor=none;top=0;left=0;bottom=0;right=0;points=[[0,0.5],[1,0.5]];portConstraint=eastwest;fontSize=16;fontFamily=Courier New;fontStyle=1" vertex="1" parent="yRKwyBDqBlV9yVA-gZC7-243">
          <mxGeometry y="78" width="240" height="77" as="geometry" />
        </mxCell>
        <mxCell id="yRKwyBDqBlV9yVA-gZC7-250" value="1" style="shape=partialRectangle;html=1;whiteSpace=wrap;connectable=0;overflow=hidden;fillColor=none;top=0;left=0;bottom=0;right=0;fontSize=16;fontFamily=Courier New;fontStyle=1" vertex="1" parent="yRKwyBDqBlV9yVA-gZC7-249">
          <mxGeometry width="51" height="77" as="geometry" />
        </mxCell>
        <mxCell id="yRKwyBDqBlV9yVA-gZC7-251" value="0" style="shape=partialRectangle;html=1;whiteSpace=wrap;connectable=0;overflow=hidden;fillColor=none;top=0;left=0;bottom=0;right=0;fontSize=16;fontFamily=Courier New;fontStyle=1" vertex="1" parent="yRKwyBDqBlV9yVA-gZC7-249">
          <mxGeometry x="51" width="52" height="77" as="geometry" />
        </mxCell>
        <mxCell id="yRKwyBDqBlV9yVA-gZC7-252" value="..." style="shape=partialRectangle;html=1;whiteSpace=wrap;connectable=0;overflow=hidden;fillColor=none;top=0;left=0;bottom=0;right=0;fontSize=16;fontFamily=Courier New;fontStyle=1" vertex="1" parent="yRKwyBDqBlV9yVA-gZC7-249">
          <mxGeometry x="103" width="86" height="77" as="geometry" />
        </mxCell>
        <mxCell id="yRKwyBDqBlV9yVA-gZC7-253" value="0" style="shape=partialRectangle;html=1;whiteSpace=wrap;connectable=0;overflow=hidden;fillColor=none;top=0;left=0;bottom=0;right=0;fontSize=16;fontFamily=Courier New;fontStyle=1" vertex="1" parent="yRKwyBDqBlV9yVA-gZC7-249">
          <mxGeometry x="189" width="51" height="77" as="geometry" />
        </mxCell>
        <mxCell id="yRKwyBDqBlV9yVA-gZC7-254" value="" style="shape=partialRectangle;html=1;whiteSpace=wrap;collapsible=0;dropTarget=0;pointerEvents=0;fillColor=none;top=0;left=0;bottom=0;right=0;points=[[0,0.5],[1,0.5]];portConstraint=eastwest;strokeColor=none;fontSize=16;fontFamily=Courier New;fontStyle=1" vertex="1" parent="yRKwyBDqBlV9yVA-gZC7-243">
          <mxGeometry y="155" width="240" height="78" as="geometry" />
        </mxCell>
        <mxCell id="yRKwyBDqBlV9yVA-gZC7-255" value="..." style="shape=partialRectangle;html=1;whiteSpace=wrap;connectable=0;overflow=hidden;fillColor=none;top=0;left=0;bottom=0;right=0;fontSize=16;fontFamily=Courier New;fontStyle=1" vertex="1" parent="yRKwyBDqBlV9yVA-gZC7-254">
          <mxGeometry width="51" height="78" as="geometry" />
        </mxCell>
        <mxCell id="yRKwyBDqBlV9yVA-gZC7-256" value="..." style="shape=partialRectangle;html=1;whiteSpace=wrap;connectable=0;overflow=hidden;fillColor=none;top=0;left=0;bottom=0;right=0;fontSize=16;fontFamily=Courier New;fontStyle=1" vertex="1" parent="yRKwyBDqBlV9yVA-gZC7-254">
          <mxGeometry x="51" width="52" height="78" as="geometry" />
        </mxCell>
        <mxCell id="yRKwyBDqBlV9yVA-gZC7-257" value="..." style="shape=partialRectangle;html=1;whiteSpace=wrap;connectable=0;overflow=hidden;fillColor=none;top=0;left=0;bottom=0;right=0;fontSize=16;fontFamily=Courier New;fontStyle=1" vertex="1" parent="yRKwyBDqBlV9yVA-gZC7-254">
          <mxGeometry x="103" width="86" height="78" as="geometry" />
        </mxCell>
        <mxCell id="yRKwyBDqBlV9yVA-gZC7-258" value="..." style="shape=partialRectangle;html=1;whiteSpace=wrap;connectable=0;overflow=hidden;fillColor=none;top=0;left=0;bottom=0;right=0;fontSize=16;fontFamily=Courier New;fontStyle=1" vertex="1" parent="yRKwyBDqBlV9yVA-gZC7-254">
          <mxGeometry x="189" width="51" height="78" as="geometry" />
        </mxCell>
        <mxCell id="yRKwyBDqBlV9yVA-gZC7-259" value="" style="shape=partialRectangle;html=1;whiteSpace=wrap;collapsible=0;dropTarget=0;pointerEvents=0;fillColor=none;top=0;left=0;bottom=0;right=0;points=[[0,0.5],[1,0.5]];portConstraint=eastwest;fontSize=16;fontFamily=Courier New;fontStyle=1" vertex="1" parent="yRKwyBDqBlV9yVA-gZC7-243">
          <mxGeometry y="233" width="240" height="77" as="geometry" />
        </mxCell>
        <mxCell id="yRKwyBDqBlV9yVA-gZC7-260" value="0" style="shape=partialRectangle;html=1;whiteSpace=wrap;connectable=0;overflow=hidden;fillColor=none;top=0;left=0;bottom=0;right=0;fontSize=16;fontFamily=Courier New;fontStyle=1" vertex="1" parent="yRKwyBDqBlV9yVA-gZC7-259">
          <mxGeometry width="51" height="77" as="geometry" />
        </mxCell>
        <mxCell id="yRKwyBDqBlV9yVA-gZC7-261" value="5" style="shape=partialRectangle;html=1;whiteSpace=wrap;connectable=0;overflow=hidden;fillColor=none;top=0;left=0;bottom=0;right=0;fontSize=16;fontFamily=Courier New;fontStyle=1" vertex="1" parent="yRKwyBDqBlV9yVA-gZC7-259">
          <mxGeometry x="51" width="52" height="77" as="geometry" />
        </mxCell>
        <mxCell id="yRKwyBDqBlV9yVA-gZC7-262" value="..." style="shape=partialRectangle;html=1;whiteSpace=wrap;connectable=0;overflow=hidden;fillColor=none;top=0;left=0;bottom=0;right=0;fontSize=16;fontFamily=Courier New;fontStyle=1" vertex="1" parent="yRKwyBDqBlV9yVA-gZC7-259">
          <mxGeometry x="103" width="86" height="77" as="geometry" />
        </mxCell>
        <mxCell id="yRKwyBDqBlV9yVA-gZC7-263" value="0" style="shape=partialRectangle;html=1;whiteSpace=wrap;connectable=0;overflow=hidden;fillColor=none;top=0;left=0;bottom=0;right=0;fontSize=16;fontFamily=Courier New;fontStyle=1" vertex="1" parent="yRKwyBDqBlV9yVA-gZC7-259">
          <mxGeometry x="189" width="51" height="77" as="geometry" />
        </mxCell>
        <mxCell id="yRKwyBDqBlV9yVA-gZC7-264" value="&lt;span&gt;&lt;font style=&quot;font-size: 19px&quot;&gt;R&lt;/font&gt;&lt;/span&gt;" style="text;html=1;strokeColor=none;fillColor=none;align=center;verticalAlign=middle;whiteSpace=wrap;rounded=0;dashed=1;fontFamily=Courier New;fontSize=16;fontStyle=1" vertex="1" parent="1">
          <mxGeometry x="170" y="440" width="40" height="20" as="geometry" />
        </mxCell>
        <mxCell id="yRKwyBDqBlV9yVA-gZC7-267" value="&lt;span&gt;&lt;font style=&quot;font-size: 19px&quot;&gt;A_ohe&lt;/font&gt;&lt;/span&gt;" style="text;html=1;strokeColor=none;fillColor=none;align=center;verticalAlign=middle;whiteSpace=wrap;rounded=0;dashed=1;fontFamily=Courier New;fontSize=16;fontStyle=1" vertex="1" parent="1">
          <mxGeometry x="729" y="440" width="40" height="20" as="geometry" />
        </mxCell>
      </root>
    </mxGraphModel>
  </diagram>
</mxfile>
